<svg width="420" height="421" viewBox="0 0 420 421" fill="none" xmlns="http://www.w3.org/2000/svg">
<g clip-path="url(#clip0_186_197)">
<path d="M419.985 212.974C418.632 327.129 324.675 421.235 207.433 420.016C93.786 418.835 -0.804843 325.542 0.000218474 208.449C0.797464 93.8093 94.3175 -0.375156 210.801 1.83524e-05C326.879 0.375193 421.634 95.521 419.985 212.974ZM399.022 174.714C398.897 92.9964 332.936 27.802 252.297 27.6144C170.447 27.419 105.424 93.8249 104.893 173.643C104.353 254.501 170.126 321.829 252.297 321.65C332.334 321.485 398.725 256.838 399.03 174.714H399.022Z" fill="white"/>
<path d="M241.346 146.982C239.502 148.147 237.813 149.226 236.11 150.273C224.62 157.3 213.13 164.311 201.64 171.33C199.639 172.549 197.623 173.737 195.63 174.964C195.083 175.3 194.535 175.683 194.082 176.137C192.613 177.583 192.433 179.56 193.574 181.084C194.864 182.812 196.677 183.288 198.561 182.194C201.375 180.561 204.142 178.849 206.901 177.121C219.594 169.196 232.272 161.262 244.95 153.329C245.661 152.884 246.364 152.407 247.185 151.867C249.483 154.009 251.484 156.385 253.375 158.847C260.582 168.227 265.303 178.786 268.101 190.229C268.961 193.754 269.547 197.35 270.243 200.922C270.321 201.305 270.282 201.703 270.336 202.086C270.493 203.173 270.125 203.868 269.117 204.462C264.873 206.995 260.691 209.637 256.471 212.208C247.365 217.773 238.251 223.323 229.145 228.88C225.816 230.912 222.478 232.952 219.156 235C212.161 239.314 204.525 241.558 196.341 241.175C188.126 240.799 180.537 238.228 173.932 233.132C166.499 227.403 161.473 219.985 159.402 210.871C156.487 198.061 159.144 186.376 167.468 176.09C170.704 172.088 174.768 169.102 179.138 166.452C189.705 160.035 200.226 153.556 210.77 147.1C215.373 144.278 220 141.488 224.589 138.643C225.487 138.088 226.222 137.947 227.277 138.408C231.779 140.362 238.447 144.301 241.346 146.975V146.982Z" fill="white"/>
<path d="M281.553 198.968C281.115 197.045 280.646 195.302 280.341 193.535C279.169 186.79 277.52 180.178 275.081 173.776C271.048 163.201 265.413 153.65 257.37 145.56C252.641 140.808 247.295 136.947 241.573 133.531C239.69 132.405 237.822 131.256 235.672 129.951C237.837 128.622 239.697 127.473 241.565 126.332C257.721 116.453 273.885 106.589 290.033 96.6856C298.037 91.7771 306.768 89.909 316.022 90.8235C324.518 91.6598 332.108 94.8645 338.634 100.469C346.294 107.05 350.968 115.382 352.633 125.269C353.758 131.944 353.25 138.611 351.062 145.099C347.623 155.291 341.104 162.865 331.897 168.367C320.501 175.175 309.261 182.225 297.951 189.166C293.011 192.191 288.064 195.208 283.116 198.217C282.686 198.475 282.217 198.663 281.568 198.968H281.553ZM289.986 179.216C290.932 178.693 291.612 178.349 292.261 177.95C303.368 171.173 314.451 164.358 325.589 157.628C333.413 152.899 338.462 146.279 340.213 137.22C341.346 131.342 340.643 125.668 338.173 120.275C334.148 111.497 327.348 105.995 317.953 103.728C314.889 102.993 311.778 102.743 308.667 103.126C303.555 103.767 298.959 105.76 294.582 108.472C283.483 115.366 272.299 122.135 261.153 128.958C260.559 129.318 260.019 129.764 259.175 130.373C266.929 136.689 273.236 143.965 278.348 152.266C283.476 160.606 287.141 169.595 289.994 179.208L289.986 179.216Z" fill="white"/>
</g>
<defs>
<clipPath id="clip0_186_197">
<rect width="420" height="420.023" fill="white"/>
</clipPath>
</defs>
</svg>
